<svg width="420" height="75" viewBox="0 0 420 75" fill="none" xmlns="http://www.w3.org/2000/svg">
<path d="M28.4496 29.6647C23.782 29.6647 21.4962 28.4857 21.5925 26.1278C21.5925 23.9143 23.8301 22.8075 28.3053 22.8075C29.3639 22.8075 30.3744 22.9278 31.3368 23.1684C32.9248 21.5804 33.7188 19.1744 33.7188 15.9504C33.7188 10.3684 29.9895 7.57744 22.5308 7.57744C18.6331 7.57744 14.9278 8.41955 11.415 10.1038C10.1158 10.7293 8.93684 11.3068 7.8782 11.8361C6.86767 12.3654 5.92932 12.6301 5.06316 12.6301C4.19699 12.6301 3.76391 12.3654 3.76391 11.8361C3.76391 11.2105 4.24511 10.2962 5.20752 9.09323C6.16993 7.8421 7.51729 6.59097 9.24962 5.33985C13.6767 2.26015 18.7053 0.696239 24.3353 0.648119C31.6977 0.648119 37.1113 2.11579 40.5759 5.05113C43.5594 7.50526 45.0511 10.8496 45.0511 15.0842C45.0511 19.9925 42.6451 23.7459 37.8331 26.3444C42.4526 28.991 45.1955 32.2391 46.0617 36.0887C46.3504 37.4361 46.4947 39.2165 46.4947 41.4301C46.4947 43.6436 45.8932 45.7368 44.6902 47.7098C43.4872 49.6827 41.8752 51.3429 39.8541 52.6902C35.812 55.2887 30.6391 56.588 24.3353 56.588C19.8602 56.588 14.8797 55.5774 9.39399 53.5564C5.73684 52.209 3.04211 50.597 1.30977 48.7203C0.443609 47.806 0.0105263 46.8917 0.0105263 45.9774C0.0586466 45.0632 0.515789 44.606 1.38195 44.606C2.29624 44.606 4.00451 44.9188 6.50677 45.5444V45.4722C6.50677 41.7188 6.93985 37.8692 7.80602 33.9233C9.29775 27.0421 11.0301 21.6526 13.003 17.7549C15.1203 13.4241 17.3098 11.2586 19.5714 11.2586C20.197 11.2586 20.5098 12.3414 20.5098 14.5068C20.5098 16.6722 20.2932 18.8857 19.8602 21.1474C19.4752 23.409 19.0421 25.6466 18.5609 27.8601C18.1278 30.0256 17.6947 31.9985 17.2617 33.7789C16.8767 35.5594 16.6842 36.8346 16.6842 37.6045L15.9624 48.5038C18.8015 49.2737 21.2075 49.6586 23.1805 49.6586C25.1534 49.6586 26.9338 49.3218 28.5218 48.6481C32.5158 46.9639 34.5128 44.0286 34.5128 39.8421C34.5128 37.3398 34.2722 35.2707 33.791 33.6346C33.3098 31.9985 32.4436 30.5549 31.1925 29.3038C30.0857 29.5444 29.1714 29.6647 28.4496 29.6647ZM62.8081 42.8737L63.2412 51.6797C63.2412 52.8346 62.6397 53.8692 61.4367 54.7835C60.2336 55.6977 58.5976 56.1549 56.5284 56.1549C55.3254 56.1549 54.4833 55.5293 54.0021 54.2782C53.569 53.0271 53.3524 51.1985 53.3524 48.7925C53.3524 43.7398 53.593 39.794 54.0742 36.9549C54.6036 34.0677 55.6141 31.1564 57.1058 28.2211C54.8923 26.1038 53.7855 24.2752 53.7855 22.7353C53.7855 19.5113 55.5179 17.8992 58.9825 17.8992C60.763 17.8992 62.3269 18.8376 63.6742 20.7143C64.6367 22.0135 65.3344 23.5293 65.7675 25.2617C66.4412 25.5023 67.2833 25.6226 68.2938 25.6226C69.6893 25.6226 71.3013 25.1654 73.1299 24.2511L75.0066 23.3128C75.584 23.0241 76.0893 22.8797 76.5224 22.8797C77.9179 22.8797 79.3133 24.9248 80.7088 29.015C80.2758 30.8917 79.7946 32.6962 79.2652 34.4286C78.784 36.1609 78.2066 38.2541 77.5329 40.7083C76.8592 43.1624 76.4983 44.8226 76.4502 45.6887C76.4502 46.5068 76.7149 46.9158 77.2442 46.9158C77.966 46.9158 78.8562 46.4586 79.9149 45.5444C80.9735 44.6301 82.0321 43.6436 83.0908 42.585C84.1494 41.4782 85.1118 40.4677 85.978 39.5534C86.8923 38.6391 87.5179 38.182 87.8547 38.182C88.5284 38.182 88.8652 39 88.8652 40.6361C88.8652 43.9564 87.3976 47.2286 84.4622 50.4526C81.575 53.6767 78.2547 55.2647 74.5013 55.2165C72.2878 55.2165 70.6276 54.3263 69.5209 52.5459C68.4141 50.7654 67.8367 48.6 67.7885 46.0496C67.7885 40.997 68.9194 36.209 71.181 31.6857C70.1224 32.1188 68.9194 32.3353 67.572 32.3353C66.2727 32.3353 65.3344 32.2872 64.757 32.191C64.3239 34.0195 63.8908 35.8722 63.4577 37.7489C63.0246 39.5774 62.8081 41.2857 62.8081 42.8737ZM129.577 37.9654C130.443 37.9654 130.877 39.0722 130.877 41.2857C130.877 42.4887 130.371 43.9564 129.361 45.6887C128.35 47.3729 127.027 48.9368 125.391 50.3805C123.803 51.7759 122.022 52.9308 120.049 53.8451C118.077 54.7594 116.152 55.2165 114.275 55.2165C111.725 55.2165 110.016 52.9789 109.15 48.5038C107.899 50.5729 106.263 52.2812 104.242 53.6286C102.221 54.9278 99.5021 55.5774 96.0855 55.5774C92.7171 55.5774 89.9983 54.5188 87.9291 52.4015C85.86 50.2842 84.8494 47.7098 84.8976 44.6782C84.8976 36.4977 87.6164 30.0496 93.054 25.3338C95.3637 23.3609 97.5051 22.0617 99.478 21.4361C101.499 20.8105 103.616 20.4977 105.83 20.4977C108.043 20.4977 109.848 20.8827 111.243 21.6526C111.917 20.2571 112.687 19.5594 113.553 19.5594C115.237 19.5594 116.825 20.3053 118.317 21.797C119.857 23.2406 120.627 24.612 120.627 25.9113C119.953 27.4992 118.967 29.4 117.667 31.6135C117.283 33.8271 117.09 36.9308 117.09 40.9248C117.09 44.9188 117.595 46.9158 118.606 46.9158C119.857 46.9158 122.889 44.4135 127.701 39.409C128.567 38.4466 129.192 37.9654 129.577 37.9654ZM95.5081 42.2962C95.5081 46.0015 96.8795 47.8541 99.6224 47.8541C102.558 47.806 104.988 46.2421 106.913 43.1624C107.586 42.1038 108.14 40.8045 108.573 39.2647C108.573 33.8752 109.054 29.2556 110.016 25.406C106.119 26.1759 102.726 28.0526 99.8389 31.0361C96.9517 34.0195 95.5081 37.7729 95.5081 42.2962ZM136.87 18.982C138.602 18.982 140.238 20.6421 141.778 23.9624C144.04 21.6045 146.831 20.4256 150.151 20.4256C153.519 20.4256 156.046 21.1714 157.73 22.6632C159.414 24.1068 160.256 26.1759 160.256 28.8707C160.256 31.5173 159.895 34.212 159.173 36.9549C158.5 39.6977 157.995 41.6707 157.658 42.8737C157.369 44.0286 157.225 44.991 157.225 45.7609C157.225 46.5308 157.489 46.9158 158.019 46.9158C158.74 46.9158 159.631 46.4586 160.689 45.5444C161.748 44.6301 162.807 43.6436 163.865 42.585C164.924 41.4782 165.886 40.4677 166.752 39.5534C167.667 38.6391 168.292 38.182 168.629 38.182C169.303 38.182 169.64 39 169.64 40.6361C169.64 44.0045 167.98 47.2526 164.659 50.3805C159.077 53.6526 155.516 55.2887 153.977 55.2887C153.832 55.2887 153.736 55.2647 153.688 55.2165C149.838 55.2165 147.913 52.1368 147.913 45.9774C147.913 43.3308 148.154 40.9008 148.635 38.6872C149.164 36.4737 149.549 34.8617 149.79 33.8511C150.031 32.8406 150.151 31.806 150.151 30.7474C150.151 29.015 149.14 28.1489 147.119 28.1489C145.146 28.1489 143.246 29.6406 141.417 32.6241C139.637 35.5594 138.434 38.615 137.808 41.791V42.2962C137.808 43.9323 138.049 45.6165 138.53 47.3489C139.059 49.0812 139.324 50.2842 139.324 50.9579C139.324 52.594 137.279 54.206 133.189 55.794C132.563 56.0346 132.01 56.1549 131.528 56.1549C130.325 56.1549 129.483 55.5293 129.002 54.2782C128.569 53.0271 128.352 51.0782 128.352 48.4316C128.352 41.5985 128.617 36.6662 129.146 33.6346C129.868 29.1113 131.504 24.9008 134.055 21.003C134.921 19.6556 135.859 18.982 136.87 18.982ZM210.357 37.9654C211.223 37.9654 211.657 39.0722 211.657 41.2857C211.657 42.4887 211.151 43.9564 210.141 45.6887C209.13 47.3729 207.807 48.9368 206.171 50.3805C204.583 51.7759 202.802 52.9308 200.83 53.8451C198.857 54.7594 196.932 55.2165 195.055 55.2165C192.408 55.2165 190.676 53.0511 189.858 48.7203C186.971 53.2917 182.688 55.5774 177.01 55.5774C173.545 55.5774 170.778 54.5188 168.709 52.4015C166.64 50.2842 165.629 47.7098 165.678 44.6782C165.678 36.4977 168.396 30.0496 173.834 25.3338C177.587 22.1098 181.485 20.4977 185.527 20.4977C187.356 20.4977 188.799 20.6421 189.858 20.9308L191.518 21.3639C193.491 12.0767 195.777 5.86917 198.375 2.74135C199.242 1.6827 200.108 1.15338 200.974 1.15338C202.369 1.15338 203.669 2.11579 204.872 4.0406C205.93 5.62857 206.46 7 206.46 8.15488C206.46 9.30977 206.291 10.4406 205.954 11.5474C205.617 12.6541 205.184 13.6887 204.655 14.6511C204.174 15.5654 203.62 16.4797 202.995 17.394C202.369 18.2601 201.744 19.1504 201.118 20.0647C199.723 25.2617 198.688 31.0842 198.014 37.5323C197.822 39.3609 197.726 40.8286 197.726 41.9353C197.726 45.2556 198.279 46.9158 199.386 46.9158C200.637 46.9158 203.669 44.4135 208.481 39.409C209.347 38.4466 209.972 37.9654 210.357 37.9654ZM176.288 42.2962C176.288 46.0015 177.66 47.8541 180.402 47.8541C182.039 47.8541 183.675 47.2286 185.311 45.9774C186.995 44.7263 188.294 42.6331 189.208 39.6977C189.305 35.3669 189.81 30.603 190.724 25.406C186.875 26.1759 183.506 28.0526 180.619 31.0361C177.732 34.0195 176.288 37.7729 176.288 42.2962ZM281.991 37.9654C282.713 37.9654 283.073 38.7835 283.073 40.4195C283.073 43.8361 281.486 47.1564 278.31 50.3805C275.134 53.5564 271.26 55.1684 266.689 55.2165C263.464 55.2165 259.735 53.9414 255.501 51.391C252.469 54.615 248.692 56.2271 244.168 56.2271C241.185 56.2271 238.995 55.4812 237.6 53.9895C236.204 52.4977 235.507 50.5248 235.507 48.0707C235.507 45.6165 236.397 43.788 238.177 42.585C240.006 41.3338 242.316 40.7083 245.107 40.7083C246.598 40.7083 247.994 40.7805 249.293 40.9248C249.293 35.0541 249.943 29.3278 251.242 23.7459C249.654 22.9278 248.283 22.0135 247.128 21.003C246.021 19.9925 245.467 19.1985 245.467 18.6211C245.467 17.0812 245.804 16.3113 246.478 16.3113C247.44 16.3113 248.427 16.6 249.437 17.1774C250.496 17.7068 251.627 18.1158 252.83 18.4045C255.813 9.79097 259.904 4.23308 265.101 1.73083C266.929 0.864659 268.854 0.431576 270.875 0.431576C278.478 0.431576 282.279 3.63158 282.279 10.0316C282.279 13.6887 280.908 16.8406 278.165 19.4872C274.364 23.1444 268.589 25.0692 260.842 25.2617C260.313 29.3038 260.048 34.0917 260.048 39.6256C260.048 40.9729 259.879 42.4887 259.543 44.1729C261.227 45.0391 262.863 45.8331 264.451 46.5549C266.039 47.2767 267.988 47.6376 270.298 47.6376C271.501 47.6376 272.679 47.1323 273.834 46.1218C275.037 45.1113 276.144 44.0045 277.155 42.8015C278.213 41.5985 279.152 40.4917 279.97 39.4812C280.788 38.4707 281.461 37.9654 281.991 37.9654ZM270.731 7.50526C266.689 7.50526 263.753 11.3549 261.925 19.0541C265.389 18.7654 268.301 17.803 270.658 16.1669C273.064 14.4827 274.267 12.7985 274.267 11.1143C274.267 8.70827 273.089 7.50526 270.731 7.50526ZM242.508 48.5759C242.556 49.9233 243.495 50.597 245.323 50.597C247.152 50.597 248.307 49.5383 248.788 47.4211C247.44 46.7474 246.334 46.4105 245.467 46.4105C243.543 46.4105 242.556 47.1323 242.508 48.5759ZM308.827 48.8647C305.026 53.3398 300.454 55.5774 295.113 55.5774C289.82 55.5774 285.85 54.2301 283.203 51.5353C280.557 48.7925 279.257 45.4 279.305 41.3579C279.257 35.6316 281.062 30.6992 284.719 26.5609C288.376 22.4226 293.164 20.3534 299.083 20.3534C301.778 20.3534 303.943 20.6902 305.579 21.3639C308.418 22.5188 309.838 23.6015 309.838 24.612C309.838 25.382 307.841 25.791 303.847 25.8391C299.901 25.8391 296.581 27.2105 293.886 29.9534C291.239 32.6481 289.916 36.0647 289.916 40.203C289.916 42.3684 290.542 44.197 291.793 45.6887C293.092 47.1323 294.896 47.8541 297.206 47.8541C299.564 47.8541 301.513 47.3729 303.053 46.4105C299.636 44.1008 297.928 40.7564 297.928 36.3774C297.88 34.0677 298.698 31.9744 300.382 30.0977C302.114 28.1729 304.304 27.2105 306.951 27.2105C309.645 27.1624 311.57 27.8842 312.725 29.3759C313.88 30.8677 314.457 32.7925 314.457 35.1504C314.457 37.4601 313.904 39.9143 312.797 42.5128H313.23C315.348 42.4647 317.176 41.7188 318.716 40.2752C319.293 39.6977 319.775 39.1925 320.16 38.7594C320.593 38.3263 321.026 38.1098 321.459 38.1098C322.132 38.1098 322.469 38.9038 322.469 40.4917C322.469 43.4271 321.603 45.6406 319.871 47.1323C318.139 48.5759 316.214 49.2977 314.096 49.2977C312.027 49.2977 310.271 49.1534 308.827 48.8647ZM308.178 40.4917C308.996 38.7594 309.405 37.0752 309.405 35.4391C309.405 33.803 308.875 32.985 307.817 32.985C307.384 32.985 307.023 33.2977 306.734 33.9233C306.445 34.5489 306.301 35.1504 306.301 35.7278C306.301 37.6526 306.926 39.2406 308.178 40.4917ZM346.503 22.1579C347.177 20.0406 348.26 18.982 349.751 18.982C351.099 19.0301 352.374 19.9925 353.577 21.8692C354.78 23.6977 355.381 25.1173 355.381 26.1278C355.285 28.1008 354.684 31.2526 353.577 35.5835C352.47 39.8662 350.906 45.4481 348.885 52.3293C352.061 49.8752 355.189 46.6752 358.269 42.7293C359.327 41.382 360.217 40.2992 360.939 39.4812C361.709 38.615 362.335 38.182 362.816 38.182C363.49 38.182 363.826 38.9519 363.826 40.4917C363.826 43.5233 362.118 47.0601 358.702 51.1023C355.333 55.1444 351.195 58.2962 346.287 60.5579C345.709 62.4827 345.084 64.3113 344.41 66.0436C343.736 67.7759 342.87 69.2917 341.811 70.591C339.502 73.382 335.989 74.7774 331.273 74.7774C328.097 74.7774 325.378 73.8632 323.117 72.0346C320.903 70.206 319.796 67.9203 319.796 65.1774C319.796 63.6857 320.278 62.5068 321.24 61.6406C322.251 60.7744 323.622 60.0767 325.354 59.5474C327.087 59.018 329.108 58.5609 331.417 58.1759C333.775 57.791 336.278 57.3098 338.924 56.7323C339.165 55.9143 339.357 55.1203 339.502 54.3504C339.694 53.5323 339.887 52.7143 340.079 51.8962C337.433 54.3504 334.184 55.5774 330.335 55.5774C326.533 55.5774 323.598 54.5188 321.529 52.4015C319.46 50.2842 318.449 47.7098 318.497 44.6782C318.497 36.4977 321.216 30.0496 326.654 25.3338C330.407 22.1098 334.305 20.4977 338.347 20.4977C339.742 20.4977 341.234 20.6662 342.822 21.003C344.458 21.3398 345.685 21.7248 346.503 22.1579ZM329.108 42.2962C329.108 46.0015 330.479 47.8541 333.222 47.8541C334.762 47.8541 336.326 47.2767 337.914 46.1218C339.502 44.9669 340.777 43.0902 341.739 40.4917C342.461 37.1233 343.207 34.0195 343.977 31.1805C344.795 28.3414 345.348 26.3684 345.637 25.2617C341.595 25.791 337.817 27.5955 334.305 30.6752C330.84 33.7549 329.108 37.6286 329.108 42.2962ZM336.687 63.3729C334.954 63.7098 333.439 63.9744 332.139 64.1669C330.84 64.3594 329.757 64.5278 328.891 64.6722C328.073 64.8165 327.448 64.985 327.014 65.1774C326.629 65.3699 326.437 65.6827 326.437 66.1158C326.437 66.982 326.966 67.7278 328.025 68.3534C329.132 68.9789 330.214 69.2677 331.273 69.2195C333.102 69.2195 334.906 67.2707 336.687 63.3729ZM389.396 48.8647C385.594 53.3398 381.023 55.5774 375.682 55.5774C370.388 55.5774 366.418 54.2301 363.772 51.5353C361.125 48.7925 359.826 45.4 359.874 41.3579C359.826 35.6316 361.63 30.6992 365.288 26.5609C368.945 22.4226 373.733 20.3534 379.652 20.3534C382.346 20.3534 384.512 20.6902 386.148 21.3639C388.987 22.5188 390.406 23.6015 390.406 24.612C390.406 25.382 388.409 25.791 384.415 25.8391C380.47 25.8391 377.149 27.2105 374.455 29.9534C371.808 32.6481 370.485 36.0647 370.485 40.203C370.485 42.3684 371.11 44.197 372.361 45.6887C373.661 47.1323 375.465 47.8541 377.775 47.8541C380.133 47.8541 382.082 47.3729 383.621 46.4105C380.205 44.1008 378.497 40.7564 378.497 36.3774C378.448 34.0677 379.267 31.9744 380.951 30.0977C382.683 28.1729 384.873 27.2105 387.519 27.2105C390.214 27.1624 392.139 27.8842 393.294 29.3759C394.448 30.8677 395.026 32.7925 395.026 35.1504C395.026 37.4601 394.473 39.9143 393.366 42.5128H393.799C395.916 42.4647 397.745 41.7188 399.285 40.2752C399.862 39.6977 400.343 39.1925 400.728 38.7594C401.161 38.3263 401.594 38.1098 402.027 38.1098C402.701 38.1098 403.038 38.9038 403.038 40.4917C403.038 43.4271 402.172 45.6406 400.439 47.1323C398.707 48.5759 396.782 49.2977 394.665 49.2977C392.596 49.2977 390.839 49.1534 389.396 48.8647ZM388.746 40.4917C389.564 38.7594 389.973 37.0752 389.973 35.4391C389.973 33.803 389.444 32.985 388.385 32.985C387.952 32.985 387.591 33.2977 387.303 33.9233C387.014 34.5489 386.87 35.1504 386.87 35.7278C386.87 37.6526 387.495 39.2406 388.746 40.4917ZM405.201 52.2571C406.164 49.803 407.607 47.782 409.532 46.194C411.457 44.5579 413.55 43.7398 415.812 43.7398C418.073 43.7398 419.204 44.991 419.204 47.4932C419.204 49.9955 418.386 52.2331 416.75 54.206C415.162 56.1789 413.55 57.1414 411.914 57.0932C409.027 57.0932 406.789 55.4812 405.201 52.2571Z" fill="black"/>
</svg>
